<?xml version="1.0" encoding="UTF-8"?>
<svg width="24px" height="24px" viewBox="0 0 24 24" version="1.1" xmlns="http://www.w3.org/2000/svg" xmlns:xlink="http://www.w3.org/1999/xlink">
    <!-- Generator: Sketch 58 (84663) - https://sketch.com -->
    <title>41 24</title>
    <desc>Created with Sketch.</desc>
    <g id="Approved" stroke="none" stroke-width="1" fill="none" fill-rule="evenodd">
        <g id="ICONS-SET-EVERYSTEP-RECORDER-REGULAR-Copy" transform="translate(-144.000000, -192.000000)" fill="#FFFFFF" fill-rule="nonzero">
            <path d="M153.5,195 C154.052285,195 154.5,195.447715 154.5,196 C154.5,196.552285 154.052285,197 153.5,197 L150,197 C149.447715,197 149,197.447715 149,198 L149,210 C149,210.552285 149.447715,211 150,211 L162,211 C162.552285,211 163,210.552285 163,210 L163,206.5 C163,205.947715 163.447715,205.5 164,205.5 C164.552285,205.5 165,205.947715 165,206.5 L165,211 C165,212.104569 164.104569,213 163,213 L149,213 C147.895431,213 147,212.104569 147,211 L147,197 C147,195.895431 147.895431,195 149,195 L153.5,195 Z M164.5,195 C164.776142,195 165,195.223858 165,195.5 L165,202 C165,202.552285 164.552285,203 164,203 C163.447715,203 163,202.552285 163,202 L163,198.414214 L153.705149,207.705151 C153.315682,208.094454 152.684385,208.094387 152.295,207.705002 C151.905615,207.315616 151.905549,206.684318 152.294852,206.294851 L161.585786,197 L158,197 C157.447715,197 157,196.552285 157,196 C157,195.447715 157.447715,195 158,195 L164.5,195 Z" id="Open-in-New-Tab-Icon-24"></path>
        </g>
    </g>
</svg>