<?xml version="1.0" encoding="UTF-8"?>
<svg width="24px" height="24px" viewBox="0 0 24 24" version="1.1" xmlns="http://www.w3.org/2000/svg" xmlns:xlink="http://www.w3.org/1999/xlink">
    <!-- Generator: Sketch 58 (84663) - https://sketch.com -->
    <title>Artboard</title>
    <desc>Created with Sketch.</desc>
    <g id="Approved" stroke="none" stroke-width="1" fill="none" fill-rule="evenodd">
        <g id="Artboard" transform="translate(-167.000000, -82.000000)" fill="#039BE5" fill-rule="nonzero">
            <g id="device-type-1" transform="translate(168.000000, 85.000000)">
                <path d="M1.16185395,18 C0.530390158,18 0,17.4842827 0,16.8704233 L0,1.12957674 C0,0.515655508 0.530453746,0 1.16185395,0 L20.8381461,0 C21.4696098,0 22,0.51571733 22,1.12957674 L22,16.8704233 C22,17.4843445 21.4695463,18 20.8381461,18 L1.16185395,18 Z M0.58094287,3.36424881 L21.4191207,3.36424881 L21.4191207,1.1050335 C21.4191207,0.785816709 21.1665479,0.540229668 20.8381778,0.540229668 L1.16188574,0.540229668 C0.833547462,0.540229668 0.58094287,0.785785798 0.58094287,1.1050335 L0.58094287,3.36424881 Z M21.3938126,3.92905263 L0.580911076,3.92905263 L0.580911076,16.8704233 C0.580911076,17.18964 0.833483874,17.4352271 1.16185395,17.4352271 L20.8381461,17.4352271 C21.1664843,17.4352271 21.4190889,17.189671 21.4190889,16.8704233 L21.4190889,3.92905263 L21.3938126,3.92905263 Z M2.02064597,1.39973794 C2.42481332,1.39973794 2.60158884,1.57163342 2.60158884,1.96454177 C2.60158884,2.35745013 2.42478152,2.5293456 2.02064597,2.5293456 C1.61651042,2.5293456 1.4397031,2.35745013 1.4397031,1.96454177 C1.4397031,1.57160251 1.61651042,1.39973794 2.02064597,1.39973794 Z M4.04132374,1.39973794 C4.44549108,1.39973794 4.62226661,1.57163342 4.62226661,1.96454177 C4.62226661,2.35745013 4.44545929,2.5293456 4.04132374,2.5293456 C3.63715639,2.5293456 3.46038087,2.35745013 3.46038087,1.96454177 C3.46038087,1.57163342 3.63718818,1.39973794 4.04132374,1.39973794 Z M6.06203329,1.39973794 C6.46620064,1.39973794 6.64297616,1.57163342 6.64297616,1.96454177 C6.64297616,2.35745013 6.46616885,2.5293456 6.06203329,2.5293456 C5.65786595,2.5293456 5.48109042,2.35745013 5.48109042,1.96454177 C5.48109042,1.57163342 5.65789774,1.39973794 6.06203329,1.39973794 Z M11.0126382,7.39153625 C10.0275598,7.39153625 9.21932044,8.12826647 9.21932044,9.03683033 L9.21932044,11.9590843 C9.21932044,12.8676481 10.0275598,13.6043784 11.0126382,13.6043784 C11.9977166,13.6043784 12.8059559,12.8676481 12.8059559,11.9590843 L12.8059559,9.03683033 C12.8059559,8.12826647 11.9977166,7.39153625 11.0126382,7.39153625 L11.0126382,7.39153625 Z M11.593581,11.9836275 C11.593581,12.2291837 11.3410083,12.4256533 11.0379145,12.4256533 C10.7348208,12.4256533 10.4822798,12.2291837 10.4822798,11.9836275 L10.4822798,9.03683033 C10.4822798,8.7912742 10.7348526,8.59480457 11.0379145,8.59480457 C11.3409765,8.59480457 11.593581,8.7912742 11.593581,9.03683033 L11.593581,11.9836275 Z M8.15841295,10.0436908 L6.79444354,10.0436908 L7.57747008,8.22647037 C7.70375648,7.93179683 7.57747008,7.56346264 7.2491318,7.44068457 C6.94603809,7.31790651 6.56717889,7.44068457 6.44089249,7.75990136 L5.27903854,10.4119941 C5.27903854,10.4365374 5.27903854,10.4611115 5.25379398,10.4856548 C5.20327306,10.633007 5.20327306,10.7557851 5.25379398,10.878594 C5.27903854,10.9031373 5.3043149,10.9522547 5.32955946,10.9767979 C5.35480403,11.0013412 5.38008038,11.0504586 5.40532494,11.0750018 C5.45584586,11.1241193 5.53161134,11.1732058 5.58213226,11.1977799 C5.58213226,11.1977799 5.58213226,11.1977799 5.58213226,11.1977799 L5.58213226,11.1977799 C5.65789774,11.2223232 5.73369502,11.2468973 5.8094605,11.2468973 L7.50176819,11.2468973 L7.50176819,13.0886301 C7.50176819,13.4078469 7.77961734,13.6780081 8.10798742,13.6780081 C8.43635749,13.6780081 8.71420664,13.4078778 8.71420664,13.0886301 L8.71420664,10.6575193 C8.78997212,10.3137284 8.51212297,10.0435981 8.15854013,10.0435981 L8.15841295,10.0436908 Z M16.1148694,10.0436908 L14.7256554,10.0436908 L15.508682,8.22647037 C15.6349684,7.93179683 15.508682,7.56346264 15.1803437,7.44068457 C14.87725,7.31790651 14.4983908,7.44068457 14.3721044,7.75990136 L13.2102504,10.4119941 C13.2102504,10.4365374 13.2102504,10.4611115 13.1850059,10.4856548 C13.134485,10.633007 13.134485,10.7557851 13.1850059,10.878594 C13.2102504,10.9031373 13.2355268,10.9522547 13.2355268,10.9767979 C13.2607714,11.0013412 13.2860477,11.0504586 13.3112923,11.0750018 C13.3618132,11.1241193 13.4375787,11.1732058 13.4880996,11.1977799 C13.4880996,11.1977799 13.4880996,11.1977799 13.4880996,11.1977799 L13.4880996,11.1977799 C13.5638651,11.2223232 13.6396623,11.2468973 13.7406724,11.2468973 L15.4329801,11.2468973 L15.4329801,13.0886301 C15.4329801,13.4078469 15.7108292,13.6780081 16.0391675,13.6780081 C16.3675058,13.6780081 16.6453867,13.4078778 16.6453867,13.0886301 L16.6453867,10.6575193 C16.7211522,10.3137284 16.4433031,10.0435981 16.114933,10.0435981 L16.1148694,10.0436908 Z" id="Shape"></path>
            </g>
        </g>
    </g>
</svg>