<?xml version="1.0" encoding="UTF-8"?>
<svg width="24px" height="24px" viewBox="0 0 24 24" version="1.1" xmlns="http://www.w3.org/2000/svg" xmlns:xlink="http://www.w3.org/1999/xlink">
    <!-- Generator: Sketch 58 (84663) - https://sketch.com -->
    <title>Artboard</title>
    <desc>Created with Sketch.</desc>
    <g id="Approved" stroke="none" stroke-width="1" fill="none" fill-rule="evenodd">
        <g id="Artboard" transform="translate(-167.000000, -82.000000)" fill="#039BE5" fill-rule="nonzero">
            <g id="device-type-1" transform="translate(168.000000, 85.000000)">
                <path d="M11.0000319,0 C4.93461581,0 0,4.9388159 0,11.0094657 C0,13.1164461 0.599514577,15.1668556 1.73360031,16.9391352 L2.41276308,18 L3.54222367,17.4431018 C5.87623168,16.2917299 8.38554867,15.7080147 11,15.7080147 C13.6144513,15.7080147 16.1236088,16.2916979 18.4577763,17.4431018 L19.5872369,18 L20.2665911,16.9391352 C21.4004854,15.1666002 22,13.1164461 22,11.0094657 C22,4.93884783 17.0654161,0 10.9999681,0 L11.0000319,0 Z M19.0804485,16.2037448 C16.6428054,15.0015164 13.9009871,14.3110125 11.0000319,14.3110125 C8.09907671,14.3110125 5.35700325,15.0077099 2.91961526,16.2099063 C2.08342081,14.9032835 1.55318773,13.3053778 1.43420984,11.7641068 L3.30005742,11.7641068 L3.30005742,10.222772 L1.43708062,10.222772 C1.59111392,8.24106502 2.43416634,6.21022555 3.74445417,4.69385605 L4.94370661,5.91437738 L5.93942074,4.92818491 L4.76281557,3.73365045 C6.27667361,2.42728303 8.14000128,1.59203154 10.3400715,1.43815346 L10.3400715,3.39690648 L11.6600242,3.39690648 L11.6600242,1.43815346 C13.8600306,1.59206347 15.723454,2.43210369 17.2370249,3.73843919 L16.0492237,4.93827318 L17.0504561,5.9350328 L18.252994,4.69363258 C19.5632819,6.21032132 20.4090137,8.24109694 20.5631746,10.222772 L18.6999745,10.222772 L18.6999745,11.7641068 L20.5658221,11.7641068 C20.446589,13.3054416 19.9163878,14.8972177 19.0804166,16.2038086 L19.0804485,16.2037448 Z M11.0000319,4.37237218 C10.4718084,4.37237218 9.53280809,10.1983495 9.53280809,11.0095296 C9.53280809,11.8204543 10.1894831,12.4777882 11.0000319,12.4777882 C11.8105807,12.4777882 12.4672557,11.8205501 12.4672557,11.0095296 C12.4672557,10.1986049 11.5280641,4.37237218 11.0000319,4.37237218 L11.0000319,4.37237218 Z" id="Shape"></path>
            </g>
        </g>
    </g>
</svg>