<?xml version="1.0" encoding="UTF-8"?>
<svg width="24px" height="24px" viewBox="0 0 24 24" version="1.1" xmlns="http://www.w3.org/2000/svg" xmlns:xlink="http://www.w3.org/1999/xlink">
    <!-- Generator: Sketch 58 (84663) - https://sketch.com -->
    <title>Artboard</title>
    <desc>Created with Sketch.</desc>
    <g id="Approved" stroke="none" stroke-width="1" fill="none" fill-rule="evenodd">
        <g id="Artboard" transform="translate(-167.000000, -82.000000)" fill="#039BE5" fill-rule="nonzero">
            <g id="device-type-1" transform="translate(168.000000, 85.000000)">
                <path d="M1.16185395,18 C0.530390158,18 0,17.4842827 0,16.8704233 L0,1.12957674 C0,0.515655508 0.530453746,0 1.16185395,0 L20.8381461,0 C21.4696098,0 22,0.51571733 22,1.12957674 L22,16.8704233 C22,17.4843445 21.4695463,18 20.8381461,18 L1.16185395,18 Z M0.580974664,3.36421789 L21.4191843,3.36421789 L21.4191843,1.10500258 C21.4191843,0.785785798 21.1666115,0.540198757 20.8382414,0.540198757 L1.16194933,0.540198757 C0.83361105,0.540198757 0.580974664,0.785754887 0.580974664,1.10500258 L0.580974664,3.36421789 L0.580974664,3.36421789 Z M21.3938126,3.92902172 L0.580879282,3.92902172 L0.580879282,16.8703923 C0.580879282,17.1896091 0.83345208,17.4351962 1.16182215,17.4351962 L20.8381143,17.4351962 C21.1664525,17.4351962 21.4190571,17.18964 21.4190571,16.8703923 L21.4190571,3.92902172 L21.3938126,3.92902172 Z M2.02067776,1.39970703 C2.42484511,1.39970703 2.60162063,1.57160251 2.60162063,1.96451086 C2.60162063,2.35741922 2.42481332,2.52931469 2.02067776,2.52931469 C1.61654221,2.52931469 1.43973489,2.35741922 1.43973489,1.96451086 C1.43973489,1.5715716 1.61654221,1.39970703 2.02067776,1.39970703 L2.02067776,1.39970703 Z M4.04129194,1.39970703 C4.44545929,1.39970703 4.62223481,1.57160251 4.62223481,1.96451086 C4.62223481,2.35741922 4.44542749,2.52931469 4.04129194,2.52931469 C3.63712459,2.52931469 3.46034907,2.35741922 3.46034907,1.96451086 C3.46034907,1.57160251 3.63715639,1.39970703 4.04129194,1.39970703 Z M6.06203329,1.39970703 C6.46620064,1.39970703 6.64297616,1.57160251 6.64297616,1.96451086 C6.64297616,2.35741922 6.46616885,2.52931469 6.06203329,2.52931469 C5.65786595,2.52931469 5.48109042,2.35741922 5.48109042,1.96451086 C5.48109042,1.57160251 5.65789774,1.39970703 6.06203329,1.39970703 Z M16.4432077,10.0191476 C16.4684522,8.98780565 16.140114,7.98094515 15.4581293,7.17055428 L15.4581293,7.17055428 L14.3720408,8.03003165 C14.1447126,7.73535811 13.8668634,7.51431432 13.5638015,7.34244976 L14.2963071,6.16369378 C13.3869942,5.62346412 12.3261503,5.42696357 11.2653064,5.5743158 L11.46739,6.92493633 C11.1137754,6.97405374 10.7601608,7.09683181 10.4318225,7.26872728 L9.74986957,6.06542806 C9.52254134,6.18820612 9.32048946,6.33555835 9.11840578,6.48287966 C8.48694199,6.97402283 8.00704096,7.58794407 7.72919181,8.32461245 L9.04260851,8.81575563 C8.91632211,9.13497241 8.84052483,9.50333752 8.81528027,9.84709755 L7.40082173,9.8225543 C7.40082173,10.2645801 7.45134265,10.7066058 7.57762905,11.1486316 C7.88072277,11.0258535 8.20909284,10.952162 8.53746291,10.952162 C8.68902567,10.952162 8.81531207,10.952162 8.94163026,10.9767052 L9.11843758,11.0012485 L8.99215118,11.6888303 C9.06791666,11.7133736 9.14371393,11.7379478 9.19420306,11.762491 L9.54781769,11.173113 L9.72462501,11.2713169 C10.2298024,11.5414472 10.6086616,11.983473 10.7854371,12.4991903 L10.8612026,12.6710858 L10.2044625,12.9166419 C10.229707,12.9903026 10.229707,13.0639941 10.2549834,13.1376548 L10.9622126,13.1376548 L10.9622126,13.3341244 C10.9622126,13.628798 10.9116917,13.9480457 10.7854053,14.2181759 C11.3663482,14.3655282 11.9725674,14.3900714 12.5787231,14.3163799 L12.3766394,12.9657593 C12.730254,12.9166419 13.0838687,12.7938638 13.4122069,12.6219684 L14.0941598,13.8252676 C14.3214881,13.7024895 14.5488163,13.5551373 14.7509,13.407816 C15.3823638,12.9166728 15.8622648,12.3027516 16.140114,11.5905955 L14.8266973,11.0994215 C14.9529837,10.7802047 15.0287809,10.4118396 15.0540255,10.0680795 L16.4432395,10.0189621 L16.4432077,10.0191476 Z M12.9323059,11.1241502 C12.2250766,11.6643489 11.2147219,11.5416018 10.6590553,10.878594 C10.1034206,10.1910121 10.2296752,9.2087258 10.9116281,8.66849613 C11.6188574,8.12826647 12.6292122,8.25104453 13.1848787,8.91405226 C13.7405134,9.60163416 13.6395352,10.5839205 12.9323059,11.1241502 L12.9323059,11.1241502 Z M10.0781125,13.2605874 C10.0781125,13.0886919 10.0528679,12.9167965 9.97710242,12.7448701 L10.6338426,12.4993139 C10.4570353,12.0081708 10.1033888,11.6152624 9.64876415,11.3697372 L9.29514951,11.9591152 C9.14358676,11.8854545 8.96681123,11.811763 8.78997212,11.7872197 L8.91625852,11.124212 C8.78997212,11.0996687 8.66368572,11.0996687 8.53739932,11.0996687 C8.13323198,11.0996687 7.75437278,11.1978726 7.40078994,11.3943423 L7.75440457,11.9837203 C7.60284182,12.0819242 7.45131086,12.1801899 7.35023723,12.3275112 L6.81978348,11.8854854 C6.4914452,12.2784247 6.28932974,12.769537 6.28932974,13.2852234 L6.28932974,13.2852234 L6.996559,13.2852234 C6.996559,13.4571189 7.02180357,13.6290143 7.09756905,13.8009407 L6.44079711,14.0219536 C6.61760443,14.5130968 6.97125085,14.9060051 7.42587553,15.1515303 L7.77949017,14.5621524 C7.93105292,14.635813 8.10782844,14.7095046 8.28466756,14.7340478 L8.15838116,15.3970556 C8.28466756,15.4215988 8.41095395,15.4215988 8.53724035,15.4215988 C8.9414077,15.4215988 9.3202669,15.3233949 9.64860518,15.1269253 L9.29499054,14.5375473 C9.4465533,14.4393434 9.59808426,14.3410777 9.69915789,14.1937563 L10.2296116,14.6357821 C10.5579499,14.2428428 10.7600654,13.7517306 10.7600654,13.2360442 L10.7600654,13.2360442 L10.0781125,13.2605874 Z M8.53736753,14.0464041 C8.08271106,14.0464041 7.72912822,13.7026132 7.72912822,13.2606183 C7.72912822,12.8186235 8.08274285,12.4748325 8.53736753,12.4748325 C8.992024,12.4748325 9.34560684,12.8186235 9.34560684,13.2606183 C9.34560684,13.7026132 8.99199221,14.0464041 8.53736753,14.0464041 Z" id="Shape"></path>
            </g>
        </g>
    </g>
</svg>