<?xml version="1.0" encoding="UTF-8"?>
<svg width="24px" height="24px" viewBox="0 0 24 24" version="1.1" xmlns="http://www.w3.org/2000/svg" xmlns:xlink="http://www.w3.org/1999/xlink">
    <!-- Generator: Sketch 58 (84663) - https://sketch.com -->
    <title>45 24</title>
    <desc>Created with Sketch.</desc>
    <g id="Approved" stroke="none" stroke-width="1" fill="none" fill-rule="evenodd">
        <g id="ICONS-SET-EVERYSTEP-RECORDER-REGULAR-Copy" transform="translate(-336.000000, -192.000000)" fill="#F44336">
            <path d="M348,194 C353.522847,194 358,198.477153 358,204 C358,209.522847 353.522847,214 348,214 C342.477153,214 338,209.522847 338,204 C338,198.477153 342.477153,194 348,194 Z M348.25,207 L347.75,207 C347.335786,207 347,207.335786 347,207.75 L347,208.25 C347,208.664214 347.335786,209 347.75,209 L348.25,209 C348.664214,209 349,208.664214 349,208.25 L349,207.75 C349,207.335786 348.664214,207 348.25,207 Z M348.25,199 L347.75,199 C347.335786,199 347,199.335786 347,199.75 L347,204.75 C347,205.164214 347.335786,205.5 347.75,205.5 L348.25,205.5 C348.664214,205.5 349,205.164214 349,204.75 L349,199.75 C349,199.335786 348.664214,199 348.25,199 Z" id="Error-Icon-24"></path>
        </g>
    </g>
</svg>