<?xml version="1.0" encoding="UTF-8"?>
<svg width="24px" height="24px" viewBox="0 0 24 24" version="1.1" xmlns="http://www.w3.org/2000/svg" xmlns:xlink="http://www.w3.org/1999/xlink">
    <!-- Generator: Sketch 58 (84663) - https://sketch.com -->
    <title>Artboard</title>
    <desc>Created with Sketch.</desc>
    <g id="Approved" stroke="none" stroke-width="1" fill="none" fill-rule="evenodd">
        <g id="Artboard" transform="translate(-167.000000, -82.000000)">
            <g id="device-type-1" transform="translate(168.000000, 85.000000)"></g>
            <path d="M184.981536,93.747503 C185.605993,94.297271 186,95.102623 186,96 C186,97.656854 184.656854,99 183,99 C181.343146,99 180,97.656854 180,96 C180,95.874507 180.007705,95.750814 180.022669,95.629368 L177.082611,94.15934 C176.543049,94.679847 175.808912,95 175,95 C174.95914,95 174.91847,94.999183 174.878007,94.997565 L172.978944,99.745224 C173.604902,100.295044 174,101.101382 174,102 C174,103.656854 172.656854,105 171,105 C169.343146,105 168,103.656854 168,102 C168,100.343146 169.343146,99 171,99 C171.04086,99 171.08153,99.000817 171.121993,99.002435 L173.021056,94.254776 C172.395098,93.704956 172,92.898618 172,92 C172,90.343146 173.343146,89 175,89 C176.656854,89 178,90.343146 178,92 C178,92.125493 177.992295,92.249186 177.977331,92.370632 L180.917389,93.84066 C181.456951,93.320153 182.191088,93 183,93 C183.042021,93 183.08384,93.000864 183.125441,93.002575 L183.457419,92.172794 C183.662568,91.660025 184.244555,91.410649 184.757325,91.615797 C185.270094,91.820945 185.51947,92.402933 185.314322,92.915702 L184.981536,93.747503 Z M186.881828,88.997715 L186.614412,89.666123 C186.409263,90.178892 185.827276,90.428269 185.314506,90.22312 C184.801737,90.017972 184.55236,89.435984 184.757509,88.923215 L185.023929,88.257296 C184.396307,87.707421 184,86.899992 184,86 C184,84.343146 185.343146,83 187,83 C188.656854,83 190,84.343146 190,86 C190,87.656854 188.656854,89 187,89 C186.960426,89 186.92103,88.999234 186.881828,88.997715 L186.881828,88.997715 Z M187,87 C187.552285,87 188,86.552285 188,86 C188,85.447715 187.552285,85 187,85 C186.447715,85 186,85.447715 186,86 C186,86.552285 186.447715,87 187,87 Z M171,103 C171.552285,103 172,102.552285 172,102 C172,101.447715 171.552285,101 171,101 C170.447715,101 170,101.447715 170,102 C170,102.552285 170.447715,103 171,103 Z M175,93 C175.552285,93 176,92.552285 176,92 C176,91.447715 175.552285,91 175,91 C174.447715,91 174,91.447715 174,92 C174,92.552285 174.447715,93 175,93 Z M183,97 C183.552285,97 184,96.552285 184,96 C184,95.447715 183.552285,95 183,95 C182.447715,95 182,95.447715 182,96 C182,96.552285 182.447715,97 183,97 Z" id="Load-Step-Curve-Icon-24" fill="#039BE5" fill-rule="nonzero"></path>
        </g>
    </g>
</svg>