<?xml version="1.0" encoding="UTF-8"?>
<svg width="24px" height="24px" viewBox="0 0 24 24" version="1.1" xmlns="http://www.w3.org/2000/svg" xmlns:xlink="http://www.w3.org/1999/xlink">
    <!-- Generator: Sketch 58 (84663) - https://sketch.com -->
    <title>Artboard</title>
    <desc>Created with Sketch.</desc>
    <g id="Approved" stroke="none" stroke-width="1" fill="none" fill-rule="evenodd">
        <g id="Artboard" transform="translate(-167.000000, -82.000000)">
            <g id="device-type-1" transform="translate(168.000000, 85.000000)"></g>
            <path d="M179.998526,85.054766 C184.171328,85.515352 187.484648,88.828672 187.945234,93.001474 C187.963365,93.000496 187.981625,93 188,93 L189,93 C189.552285,93 190,93.447715 190,94 C190,94.552285 189.552285,95 189,95 L188,95 C187.981625,95 187.963365,94.999504 187.945234,94.998526 C187.484648,99.171328 184.171328,102.484648 179.998526,102.945234 C179.999504,102.963365 180,102.981625 180,103 L180,104 C180,104.552285 179.552285,105 179,105 C178.447715,105 178,104.552285 178,104 L178,103 C178,102.981625 178.000496,102.963365 178.001474,102.945234 C173.828672,102.484648 170.515352,99.171328 170.054766,94.998526 C170.036635,94.999504 170.018375,95 170,95 L169,95 C168.447715,95 168,94.552285 168,94 C168,93.447715 168.447715,93 169,93 L170,93 C170.018375,93 170.036635,93.000496 170.054766,93.001474 C170.515352,88.828672 173.828672,85.515352 178.001474,85.054766 C178.000496,85.036635 178,85.018375 178,85 L178,84 C178,83.447715 178.447715,83 179,83 C179.552285,83 180,83.447715 180,84 L180,85 C180,85.018375 179.999504,85.036635 179.998526,85.054766 L179.998526,85.054766 Z M179,101 C182.865993,101 186,97.865993 186,94 C186,90.134007 182.865993,87 179,87 C175.134007,87 172,90.134007 172,94 C172,97.865993 175.134007,101 179,101 Z M179,98 C176.790861,98 175,96.209139 175,94 C175,91.790861 176.790861,90 179,90 C181.209139,90 183,91.790861 183,94 C183,96.209139 181.209139,98 179,98 Z" id="Target-Location-Icon-24" fill="#039BE5" fill-rule="nonzero"></path>
        </g>
    </g>
</svg>