<?xml version="1.0" encoding="UTF-8"?>
<svg width="24px" height="24px" viewBox="0 0 24 24" version="1.1" xmlns="http://www.w3.org/2000/svg" xmlns:xlink="http://www.w3.org/1999/xlink">
    <!-- Generator: Sketch 58 (84663) - https://sketch.com -->
    <title>Artboard</title>
    <desc>Created with Sketch.</desc>
    <g id="Approved" stroke="none" stroke-width="1" fill="none" fill-rule="evenodd">
        <g id="Artboard" transform="translate(-167.000000, -82.000000)">
            <g id="device-type-1" transform="translate(168.000000, 85.000000)"></g>
            <path d="M175.170706,86 C175.582542,84.834808 176.693781,84 178,84 C179.656854,84 181,85.343146 181,87 C181,88.656854 179.656854,90 178,90 C176.693781,90 175.582542,89.165192 175.170706,88 L170,88 C169.447715,88 169,87.552285 169,87 C169,86.447715 169.447715,86 170,86 L175.170706,86 Z M171.170706,100 C171.582542,98.834808 172.693781,98 174,98 C175.656854,98 177,99.343146 177,101 C177,102.656854 175.656854,104 174,104 C172.693781,104 171.582542,103.165192 171.170706,102 L170,102 C169.447715,102 169,101.552285 169,101 C169,100.447715 169.447715,100 170,100 L171.170706,100 Z M179.170706,93 C179.582542,91.834808 180.693781,91 182,91 C183.656854,91 185,92.343146 185,94 C185,95.656854 183.656854,97 182,97 C180.693781,97 179.582542,96.165192 179.170706,95 L170,95 C169.447715,95 169,94.552285 169,94 C169,93.447715 169.447715,93 170,93 L179.170706,93 Z M187,93 L188,93 C188.552285,93 189,93.447715 189,94 C189,94.552285 188.552285,95 188,95 L187,95 C186.447715,95 186,94.552285 186,94 C186,93.447715 186.447715,93 187,93 Z M187,86 L188,86 C188.552285,86 189,86.447715 189,87 C189,87.552285 188.552285,88 188,88 L187,88 C186.447715,88 186,87.552285 186,87 C186,86.447715 186.447715,86 187,86 Z M183,86 L184,86 C184.552285,86 185,86.447715 185,87 C185,87.552285 184.552285,88 184,88 L183,88 C182.447715,88 182,87.552285 182,87 C182,86.447715 182.447715,86 183,86 Z M187,100 L188,100 C188.552285,100 189,100.447715 189,101 C189,101.552285 188.552285,102 188,102 L187,102 C186.447715,102 186,101.552285 186,101 C186,100.447715 186.447715,100 187,100 Z M183,100 L184,100 C184.552285,100 185,100.447715 185,101 C185,101.552285 184.552285,102 184,102 L183,102 C182.447715,102 182,101.552285 182,101 C182,100.447715 182.447715,100 183,100 Z M179,100 L180,100 C180.552285,100 181,100.447715 181,101 C181,101.552285 180.552285,102 180,102 L179,102 C178.447715,102 178,101.552285 178,101 C178,100.447715 178.447715,100 179,100 Z M174,102 C174.552285,102 175,101.552285 175,101 C175,100.447715 174.552285,100 174,100 C173.447715,100 173,100.447715 173,101 C173,101.552285 173.447715,102 174,102 Z M182,95 C182.552285,95 183,94.552285 183,94 C183,93.447715 182.552285,93 182,93 C181.447715,93 181,93.447715 181,94 C181,94.552285 181.447715,95 182,95 Z M178,88 C178.552285,88 179,87.552285 179,87 C179,86.447715 178.552285,86 178,86 C177.447715,86 177,86.447715 177,87 C177,87.552285 177.447715,88 178,88 Z" id="Dynamic-Adjustable-Curve-Icon-24" fill="#039BE5" fill-rule="nonzero"></path>
        </g>
    </g>
</svg>