<?xml version="1.0" encoding="UTF-8"?>
<svg width="145px" height="42px" viewBox="0 0 145 42" version="1.1" xmlns="http://www.w3.org/2000/svg" xmlns:xlink="http://www.w3.org/1999/xlink">
    <!-- Generator: Sketch 55.1 (78136) - https://sketchapp.com -->
    <title>Logo loadview</title>
    <desc>Created with Sketch.</desc>
    <g id="Approved" stroke="none" stroke-width="1" fill="none" fill-rule="evenodd">
        <g id="Logos" transform="translate(-100.000000, -53.000000)">
            <g id="Logo-loadview" transform="translate(100.000000, 53.000000)">
                <path d="M144,34.5 C143.171573,34.5 142.5,35.1715729 142.5,36 L142.5,39 L141,39 L141,36 C141,34.3431458 142.343146,33 144,33 L144,34.5 Z M137.5,37.5 C138.328427,37.5 139,36.8284271 139,36 C139,35.1715729 138.328427,34.5 137.5,34.5 C136.671573,34.5 136,35.1715729 136,36 C136,36.8284271 136.671573,37.5 137.5,37.5 Z M137.5,39 C135.843146,39 134.5,37.6568542 134.5,36 C134.5,34.3431458 135.843146,33 137.5,33 C139.156854,33 140.5,34.3431458 140.5,36 C140.5,37.6568542 139.156854,39 137.5,39 Z M131.869999,38.1299973 C131.287942,37.5428242 131,36.8485463 131,36 L131,30 L132.5,30 L132.5,33 L134,33 L134,34.5 L132.5,34.5 L132.5,36 C132.5,36.4161089 132.656827,36.7586648 132.94784,37.0500031 C133.238502,37.3413386 133.589531,37.5 134,37.5 L134,39 C133.164113,39 132.452024,38.7171703 131.869999,38.1299973 Z M130.5,31.4937443 C130.5,31.7754174 130.404692,32.0134789 130.214285,32.2081354 C130.023879,32.4027937 129.787751,32.5 129.506291,32.5 C129.224618,32.5 128.986556,32.4027937 128.792111,32.2081354 C128.597452,32.0134772 128.5,31.775418 128.5,31.4937443 C128.5,31.2122822 128.597452,30.9761192 128.792111,30.7857145 C128.986558,30.5953086 129.224617,30.5 129.506291,30.5 C129.779459,30.5 130.013479,30.597452 130.208135,30.7918997 C130.402794,30.986558 130.5,31.2205766 130.5,31.4937437 L130.5,31.4937443 Z M130.362854,39 L128.648568,39 L128.648568,33 L130.362854,33 L130.362854,39 Z M128,39 L126.5,39 L126.5,36 C126.5,35.1715729 125.828427,34.5 125,34.5 C124.171573,34.5 123.5,35.1715729 123.5,36 L123.5,39 L122,39 L122,36 C122,34.3431458 123.343146,33 125,33 C126.656854,33 128,34.3431458 128,36 L128,39 Z M118.5,37.5 C119.328427,37.5 120,36.8284271 120,36 C120,35.1715729 119.328427,34.5 118.5,34.5 C117.671573,34.5 117,35.1715729 117,36 C117,36.8284271 117.671573,37.5 118.5,37.5 Z M118.5,39 C116.843146,39 115.5,37.6568542 115.5,36 C115.5,34.3431458 116.843146,33 118.5,33 C120.156854,33 121.5,34.3431458 121.5,36 C121.5,37.6568542 120.156854,39 118.5,39 Z M115,39 L113.5,39 L113.5,35.875 C113.5,35.1156085 112.884392,34.5 112.125,34.5 C111.365608,34.5 110.75,35.1156085 110.75,35.875 L110.75,39 L109.25,39 L109.25,35.875 C109.25,35.1156085 108.634392,34.5 107.875,34.5 C107.115608,34.5 106.5,35.1156085 106.5,35.875 L106.5,39 L105,39 L105,36 C105,34.3431458 106.343146,33 108,33 C108.768354,33 109.469244,33.2888536 110,33.7638935 C110.530756,33.2888536 111.231646,33 112,33 C113.656854,33 115,34.3431458 115,36 L115,39 Z M102,36 L104,36 L104,37 L102,37 L102,36 Z M101,39 L99.5,39 L99.5,35.875 C99.5,35.1156085 98.8843915,34.5 98.125,34.5 C97.3656085,34.5 96.75,35.1156085 96.75,35.875 L96.75,39 L95.25,39 L95.25,35.875 C95.25,35.1156085 94.6343915,34.5 93.875,34.5 C93.1156085,34.5 92.5,35.1156085 92.5,35.875 L92.5,39 L91,39 L91,36 C91,34.3431458 92.3431458,33 94,33 C94.7683544,33 95.4692435,33.2888536 96,33.7638935 C96.5307565,33.2888536 97.2316456,33 98,33 C99.6568542,33 101,34.3431458 101,36 L101,39 Z M87.5,37.5 C88.3284271,37.5 89,36.8284271 89,36 C89,35.1715729 88.3284271,34.5 87.5,34.5 C86.6715729,34.5 86,35.1715729 86,36 C86,36.8284271 86.6715729,37.5 87.5,37.5 Z M87.5,39 C85.8431458,39 84.5,37.6568542 84.5,36 C84.5,34.3431458 85.8431458,33 87.5,33 C89.1568542,33 90.5,34.3431458 90.5,36 C90.5,37.6568542 89.1568542,39 87.5,39 Z M83.7961517,35.0069502 C83.5098602,34.6960441 83.0913054,34.5 82.6250532,34.5 C81.7620936,34.5 81.0625266,35.1715729 81.0625266,36 C81.0625266,36.8284271 81.7620936,37.5 82.6250532,37.5 C83.0913054,37.5 83.5098602,37.3039559 83.7961517,36.9930498 C83.9336456,37.5097406 84.1759345,37.9861834 84.5,38.4002811 C83.9777179,38.7768574 83.3285307,39 82.6250532,39 C80.899134,39 79.5,37.6568542 79.5,36 C79.5,34.3431458 80.899134,33 82.6250532,33 C83.3285307,33 83.9777179,33.2231426 84.5,33.5997189 C84.1759345,34.0138166 83.9336456,34.4902594 83.7961517,35.0069502 L83.7961517,35.0069502 Z M76.8699989,38.1299973 C76.287942,37.5428242 76,36.8485463 76,36 L76,30 L77.5,30 L77.5,33 L79,33 L79,34.5 L77.5,34.5 L77.5,36 C77.5,36.4161089 77.6568272,36.7586648 77.9478396,37.0500031 C78.2385021,37.3413386 78.5895306,37.5 79,37.5 L79,39 C78.1641131,39 77.4520237,38.7171703 76.8699989,38.1299973 Z M72.5,37.5 C73.3284271,37.5 74,36.8284271 74,36 C74,35.1715729 73.3284271,34.5 72.5,34.5 C71.6715729,34.5 71,35.1715729 71,36 C71,36.8284271 71.6715729,37.5 72.5,37.5 Z M72.5,39 C70.8431458,39 69.5,37.6568542 69.5,36 C69.5,34.3431458 70.8431458,33 72.5,33 C74.1568542,33 75.5,34.3431458 75.5,36 C75.5,37.6568542 74.1568542,39 72.5,39 Z M66,37.5 C66.8284271,37.5 67.5,36.8284271 67.5,36 C67.5,35.1715729 66.8284271,34.5 66,34.5 C65.1715729,34.5 64.5,35.1715729 64.5,36 C64.5,36.8284271 65.1715729,37.5 66,37.5 Z M67.5,33.4013466 L67.5,30 L69,30 L69,36 C69,37.6568542 67.6568542,39 66,39 C64.3431458,39 63,37.6568542 63,36 C63,34.3431458 64.3431458,33 66,33 C66.5464307,33 67.0587399,33.1460914 67.5,33.4013466 L67.5,33.4013466 Z M50,37.5 C50.8284271,37.5 51.5,36.8284271 51.5,36 C51.5,35.1715729 50.8284271,34.5 50,34.5 C49.1715729,34.5 48.5,35.1715729 48.5,36 C48.5,36.8284271 49.1715729,37.5 50,37.5 Z M48.5,33.4013466 C48.9412601,33.1460914 49.4535693,33 50,33 C51.6568542,33 53,34.3431458 53,36 C53,37.6568542 51.6568542,39 50,39 C48.3431458,39 47,37.6568542 47,36 L47,30 L48.5,30 L48.5,33.4013466 L48.5,33.4013466 Z M59.4764,38.85575 C59.4764,39.6957209 59.1883612,40.4018805 58.612275,40.97425 C58.0361888,41.5466195 57.3281709,41.8328 56.4882,41.8328 L56.4882,40.32755 C56.8970354,40.32755 57.2463986,40.1844598 57.5363,39.898275 C57.8262014,39.6120902 57.97115,39.2645854 57.97115,38.85575 L57.97115,38.58815 C57.510281,38.848318 57.0159693,38.9784 56.4882,38.9784 C55.6556625,38.9784 54.9495029,38.6885029 54.3697,38.1087 C53.7898971,37.5288971 53.5,36.8227375 53.5,35.9902 L53.5,33.002 L55.00525,33.002 L55.0164,35.9902 C55.0164,36.3990354 55.1594902,36.7483986 55.445675,37.0383 C55.7318598,37.3282014 56.0793646,37.47315 56.4882,37.47315 C56.8970354,37.47315 57.2463986,37.3282014 57.5363,37.0383 C57.8262014,36.7483986 57.97115,36.3990354 57.97115,35.9902 L57.97115,33.002 L59.4764,33.002 L59.4764,38.85575 Z" id="by-dotcom-monitor" fill="#999999" fill-rule="nonzero"></path>
                <path d="M89,26 L89,8 L93,8 L93,26 L89,26 Z M91,6.5 C89.6192881,6.5 88.5,5.38071187 88.5,4 C88.5,2.61928813 89.6192881,1.5 91,1.5 C92.3807119,1.5 93.5,2.61928813 93.5,4 C93.5,5.38071187 92.3807119,6.5 91,6.5 Z M108.809213,24.6086994 C107.418038,25.4898599 105.768594,26 104,26 C99.0294373,26 95,21.9705627 95,17 C95,12.0294373 99.0294373,8 104,8 C108.970563,8 113,12.0294373 113,17 C113,17.5110683 112.957402,18.0121873 112.875562,18.5 L99.2289011,18.5 C99.866033,20.5285535 101.761179,22 104,22 C105.253146,22 106.398618,21.5389913 107.27607,20.7773186 C107.365409,20.6997666 107.451945,20.6191232 107.535534,20.5355339 L110.363961,23.363961 C109.894294,23.8336279 109.372959,24.2516266 108.809213,24.6086994 Z M99.4160437,15 L108.583956,15 C107.8124,13.2340952 106.050319,12 104,12 C101.949681,12 100.1876,13.2340952 99.4160437,15 Z M145,8 L145,17.5 C145,22.1944204 141.19442,26 136.5,26 C133.892494,26 131.559215,24.8258936 130,22.9775167 C128.440785,24.8258936 126.107506,26 123.5,26 C118.80558,26 115,22.1944204 115,17.5 L115,8 L119,8 L119,17.5 C119,19.9852814 121.014719,22 123.5,22 C125.985281,22 128,19.9852814 128,17.5 L128,8 L132,8 L132,17.5 C132,19.9852814 134.014719,22 136.5,22 C138.985281,22 141,19.9852814 141,17.5 L141,8 L145,8 Z M74.4496677,8 L78.6590571,16.7386924 L82.8176843,8 L87.2475252,8 L78.6809429,26.0013076 L70.0097928,8 L74.4496677,8 Z" id="view" fill="#039BE5"></path>
                <path d="M44,26 L44,24 C42.6682629,25.3317371 41.0039901,25.9984028 39.0071817,26 L39,26 C34.0294373,26 30,21.9705627 30,17 C30,12.0294373 34.0294373,8 39,8 C43.9705627,8 48,12.0294373 48,17 L48,26 L44,26 Z M9,22 L9,26 C4.02943725,26 0,21.9705627 0,17 L0,0 L4,0 L4,17 C4,19.7614237 6.23857625,22 9,22 Z M19,26 C14.0294373,26 10,21.9705627 10,17 C10,12.0294373 14.0294373,8 19,8 C23.9705627,8 28,12.0294373 28,17 C28,21.9705627 23.9705627,26 19,26 Z M19,22 C21.7614237,22 24,19.7614237 24,17 C24,14.2385763 21.7614237,12 19,12 C16.2385763,12 14,14.2385763 14,17 C14,19.7614237 16.2385763,22 19,22 Z M39,22 C41.7614237,22 44,19.7614237 44,17 C44,14.2385763 41.7614237,12 39,12 C36.2385763,12 34,14.2385763 34,17 C34,19.7614237 36.2385763,22 39,22 Z M68,17 C68,21.9705627 63.9705627,26 59,26 C54.0294373,26 50,21.9705627 50,17 C50,12.0294373 54.0294373,8 59,8 C60.8501466,8 62.569902,8.55827166 64,9.51554904 L64,0 L68,0 L68,17 Z M59,22 C61.7614237,22 64,19.7614237 64,17 C64,14.2385763 61.7614237,12 59,12 C56.2385763,12 54,14.2385763 54,17 C54,19.7614237 56.2385763,22 59,22 Z" id="load" fill="#4CAF50"></path>
            </g>
        </g>
    </g>
</svg>