<?xml version="1.0" encoding="UTF-8"?>
<svg width="24px" height="24px" viewBox="0 0 24 24" version="1.1" xmlns="http://www.w3.org/2000/svg" xmlns:xlink="http://www.w3.org/1999/xlink">
    <!-- Generator: Sketch 58 (84663) - https://sketch.com -->
    <title>80 24</title>
    <desc>Created with Sketch.</desc>
    <g id="Approved" stroke="none" stroke-width="1" fill="none" fill-rule="evenodd">
        <g id="ICONS-SET-EVERYSTEP-RECORDER-REGULAR" transform="translate(-192.000000, -288.000000)" fill="#4CAF50">
            <path d="M204,290 C209.522847,290 214,294.477153 214,300 C214,305.522847 209.522847,310 204,310 C198.477153,310 194,305.522847 194,300 C194,294.477153 198.477153,290 204,290 Z M209.70703,296.293032 C209.316404,295.902323 208.683073,295.902323 208.292447,296.293032 L208.292447,296.293032 L202.175403,302.408342 C202.077761,302.505962 201.919469,302.505943 201.82185,302.408301 L201.82185,302.408301 L199.707553,300.293032 C199.316927,299.902323 198.683596,299.902323 198.29297,300.293032 C197.902343,300.683742 197.902343,301.317207 198.29297,301.707916 L198.29297,301.707916 L201.291585,304.707746 C201.682085,305.098295 202.31525,305.098335 202.705799,304.707835 L202.705799,304.707835 L209.70703,297.707916 C210.097657,297.317207 210.097657,296.683742 209.70703,296.293032 Z" id="Select-Done-Filled-Icon-24"></path>
        </g>
    </g>
</svg>